HIERARCHY
ROOT Hips
{
	OFFSET -0.001795 -0.223333 0.028219
	CHANNELS 6 Xposition Yposition Zposition Zrotation Yrotation Xrotation 
	JOINT LeftUpLeg
	{
		OFFSET 0.069520 -0.091406 -0.006815
		CHANNELS 3 Zrotation Yrotation Xrotation
		JOINT LeftLeg
		{
			OFFSET 0.034277 -0.375199 -0.004496
			CHANNELS 3 Zrotation Yrotation Xrotation
			JOINT LeftFoot
			{
				OFFSET -0.013596 -0.397961 -0.043693
				CHANNELS 3 Zrotation Yrotation Xrotation
				JOINT LeftToe
				{
					OFFSET 0.026358 -0.055791 0.119288
					CHANNELS 3 Zrotation Yrotation Xrotation
					End Site
					{
						OFFSET 0.000000 0.000000 0.000000
					}
				}
			}
		}
	}
	JOINT RightUpLeg
	{
		OFFSET -0.067670 -0.090522 -0.004320
		CHANNELS 3 Zrotation Yrotation Xrotation
		JOINT RightLeg
		{
			OFFSET -0.038290 -0.382569 -0.008850
			CHANNELS 3 Zrotation Yrotation Xrotation
			JOINT RightFoot
			{
				OFFSET 0.015774 -0.398415 -0.042312
				CHANNELS 3 Zrotation Yrotation Xrotation
				JOINT RightToe
				{
					OFFSET -0.025372 -0.048144 0.123348
					CHANNELS 3 Zrotation Yrotation Xrotation
					End Site
					{
						OFFSET 0.000000 0.000000 0.000000
					}
				}
			}
		}
	}
	JOINT Spine
	{
		OFFSET -0.002533 0.108963 -0.026696
		CHANNELS 3 Zrotation Yrotation Xrotation
		JOINT Spine1
		{
			OFFSET 0.005487 0.135180 0.001092
			CHANNELS 3 Zrotation Yrotation Xrotation
			JOINT Spine2
			{
				OFFSET 0.001457 0.052922 0.025425
				CHANNELS 3 Zrotation Yrotation Xrotation
				JOINT Neck
				{
					OFFSET -0.002778 0.213870 -0.042857
					CHANNELS 3 Zrotation Yrotation Xrotation
					JOINT Head
					{
						OFFSET 0.005152 0.064970 0.051349
						CHANNELS 3 Zrotation Yrotation Xrotation
						End Site
						{
							OFFSET 0.000000 0.000000 0.000000
						}
					}
				}
				JOINT LeftShoulder
				{
					OFFSET 0.078845 0.121749 -0.034090
					CHANNELS 3 Zrotation Yrotation Xrotation
					JOINT LeftArm
					{
						OFFSET 0.090977 0.030469 -0.008868
						CHANNELS 3 Zrotation Yrotation Xrotation
						JOINT LeftForeArm
						{
							OFFSET 0.259612 -0.012772 -0.027456
							CHANNELS 3 Zrotation Yrotation Xrotation
							JOINT LeftHand
							{
								OFFSET 0.249234 0.008986 -0.001171
								CHANNELS 3 Zrotation Yrotation Xrotation
								End Site
								{
									OFFSET 0.000000 0.000000 0.000000
								}
							}
						}
					}
				}
				JOINT RightShoulder
				{
					OFFSET -0.081759 0.118833 -0.038615
					CHANNELS 3 Zrotation Yrotation Xrotation
					JOINT RightArm
					{
						OFFSET -0.096012 0.032551 -0.009143
						CHANNELS 3 Zrotation Yrotation Xrotation
						JOINT RightForeArm
						{
							OFFSET -0.253742 -0.013329 -0.021401
							CHANNELS 3 Zrotation Yrotation Xrotation
							JOINT RightHand
							{
								OFFSET -0.255298 0.007772 -0.005559
								CHANNELS 3 Zrotation Yrotation Xrotation
								End Site
								{
									OFFSET 0.000000 0.000000 0.000000
								}
							}
						}
					}
				}
			}
		}
	}
}
MOTION
Frames: 11
Frame Time: 0.050000
0.002896 0.926318 0.010001 -2.033010 3.892947 -2.866156 -2.142152 0.283981 2.472743 -1.356928 -0.220343 12.194814 8.276973 16.916886 1.957086 0.000000 0.000000 0.000000 -1.985291 1.764660 -22.919728 -2.702658 1.420245 20.102919 6.159786 5.316785 16.207165 0.000000 0.000000 0.000000 3.897038 -0.320478 4.254907 1.249943 -0.752810 2.583884 -7.490718 -2.015445 4.212346 12.768450 -6.053110 -18.065537 0.000000 0.000000 0.000000 -13.444241 -26.046748 10.962930 -50.616617 -39.715593 11.548442 148.810060 -59.734377 -122.269863 0.000000 0.000000 0.000000 12.291402 12.862235 5.237712 66.948378 41.678581 19.700421 -145.989234 58.674974 -114.126751 0.000000 0.000000 0.000000 
0.006335 0.925889 0.022782 -1.848952 5.855419 -2.209308 -2.225391 0.251401 2.091639 -1.218372 -0.323186 12.919900 7.476767 15.311409 1.712001 0.000000 0.000000 0.000000 -2.184482 1.651783 -23.240063 -2.814711 1.391872 20.864488 4.163708 2.049498 16.159805 0.000000 0.000000 0.000000 3.729861 -0.337432 4.422964 2.408384 -1.425200 3.276130 -9.129623 -1.656823 3.135745 13.112406 -5.187206 -21.793815 0.000000 0.000000 0.000000 -11.362097 -26.660376 10.556817 -51.782502 -43.877115 14.017005 132.977088 -62.445882 -104.782485 0.000000 0.000000 0.000000 10.967079 12.768552 5.388521 67.233545 46.770885 23.864491 -125.065474 57.771444 -84.861314 0.000000 0.000000 0.000000 
0.009985 0.926114 0.017336 -2.021636 8.426477 -1.964807 -1.768262 0.126401 0.942968 -1.407712 -0.379131 13.600466 6.455403 13.117859 0.866136 0.000000 0.000000 0.000000 -2.719715 1.333338 -21.419895 -2.192627 0.972046 17.248035 2.090683 -1.288583 16.498867 0.000000 0.000000 0.000000 3.981527 -0.417010 5.160632 2.247847 -1.424011 3.809295 -9.237731 -1.018886 2.189673 13.335698 -4.364504 -24.955713 0.000000 0.000000 0.000000 -10.703108 -27.964426 10.681536 -52.358813 -46.143128 15.333460 109.564734 -62.722101 -79.528092 0.000000 0.000000 0.000000 11.486319 12.829408 5.796175 64.921531 49.908831 25.334263 -105.849228 55.409440 -61.461980 0.000000 0.000000 0.000000 
0.000809 0.922629 0.033152 -2.216621 9.915998 -0.769129 -0.569967 -0.241168 -2.806053 -1.581130 -0.721854 19.249872 6.204717 12.746181 1.208598 0.000000 0.000000 0.000000 -2.824045 1.245704 -21.208062 -0.784989 0.516592 16.609177 0.848613 -2.518965 13.890623 0.000000 0.000000 0.000000 3.491020 -0.440302 5.551990 1.962016 -1.187251 2.669178 -8.798220 1.125819 1.934275 14.469983 -4.314189 -26.463151 0.000000 0.000000 0.000000 -10.212080 -28.509801 10.349895 -48.045054 -47.906233 14.364754 85.494566 -60.778294 -56.249115 0.000000 0.000000 0.000000 12.366102 13.965838 6.992446 55.916971 52.695872 22.755566 -86.417846 49.957024 -39.665644 0.000000 0.000000 0.000000 
-0.005397 0.923839 0.038262 -2.944292 11.688877 -0.744433 1.330347 -0.543840 -6.425660 -2.461061 -1.037096 25.456550 5.155187 11.443451 3.141620 0.000000 0.000000 0.000000 -1.958387 1.366517 -22.168222 -0.577779 0.385054 18.883832 0.015543 -3.865596 14.135998 0.000000 0.000000 0.000000 3.414973 -0.555040 6.905263 1.382484 -0.791695 1.400716 -7.933509 3.711656 2.637238 15.413932 -4.118027 -28.096708 0.000000 0.000000 0.000000 -9.153748 -27.823949 9.350787 -43.505833 -49.495025 12.898866 64.612952 -57.545172 -38.580461 0.000000 0.000000 0.000000 10.838178 14.427333 7.570341 45.742547 54.182692 18.629589 -70.799916 42.813622 -24.305144 0.000000 0.000000 0.000000 
-0.001765 0.925816 0.054307 -3.725732 12.670698 -2.237916 4.608602 -0.474464 -6.318524 -5.343978 -0.430467 28.755527 12.128289 23.607741 10.015787 0.000000 0.000000 0.000000 -0.879221 1.500142 -21.414124 -1.141470 0.476827 21.571616 -0.540815 -5.032799 15.559959 0.000000 0.000000 0.000000 3.697301 -0.667363 8.050449 0.529855 -0.299849 0.591786 -7.173179 6.867548 3.730258 16.663089 -4.834545 -26.587990 0.000000 0.000000 0.000000 -8.517065 -28.319879 8.938752 -31.162397 -46.348150 7.183755 52.002000 -53.226415 -28.400572 0.000000 0.000000 0.000000 9.081599 16.898637 8.935075 28.479880 50.958105 9.339571 -62.392940 46.625530 -22.598966 0.000000 0.000000 0.000000 
-0.000955 0.921926 0.056045 -3.343554 13.105600 -3.591049 5.918950 -0.379665 -4.732896 -6.485139 -0.106536 28.943348 12.632438 24.334222 14.745112 0.000000 0.000000 0.000000 -2.146069 1.238511 -22.154658 0.113562 -0.057472 25.081426 -0.700812 -5.579498 16.873939 0.000000 0.000000 0.000000 3.607088 -0.621548 7.812982 -0.726867 0.267586 1.313099 -6.889971 8.797820 4.315979 17.846194 -5.860493 -24.594836 0.000000 0.000000 0.000000 -6.136858 -26.848655 7.979383 -23.320460 -40.094005 3.537952 51.805601 -52.709863 -28.842713 0.000000 0.000000 0.000000 2.826978 19.592080 8.663063 17.632992 48.076859 4.872384 -47.601295 36.462711 -11.874539 0.000000 0.000000 0.000000 
-0.004429 0.913728 0.042002 -3.025438 14.326542 -4.517037 5.699532 -0.368382 -4.404756 -6.167839 -0.455903 30.468482 10.761363 21.312422 6.607194 0.000000 0.000000 0.000000 -3.951114 0.778683 -24.420703 1.544021 -0.947756 29.894657 -0.072069 -4.294721 16.007316 0.000000 0.000000 0.000000 4.626923 -0.705802 7.964605 -2.695581 1.237528 1.222024 -7.272786 11.753366 4.742448 21.039798 -8.318163 -22.021921 0.000000 0.000000 0.000000 -3.524897 -21.864962 5.894509 -20.369635 -37.135304 2.205316 65.888282 -53.000356 -39.963812 0.000000 0.000000 0.000000 -3.628039 21.179047 7.556151 10.579118 41.580250 2.197059 -30.600573 23.521794 -3.891491 0.000000 0.000000 0.000000 
-0.000175 0.901128 0.030471 -2.934299 16.583511 -5.710518 6.359136 -0.415369 -5.117874 -6.955394 -0.795580 34.572469 8.235312 15.565054 -1.532859 0.000000 0.000000 0.000000 -5.740919 0.113093 -25.898862 2.722871 -2.223444 35.450000 -1.017818 -4.725307 9.968928 0.000000 0.000000 0.000000 4.386480 -0.735477 8.478958 -4.607771 2.189414 0.288722 -5.371722 14.993461 5.651746 21.881267 -8.936293 -20.991941 0.000000 0.000000 0.000000 -3.472798 -16.770025 3.837533 -15.430382 -35.500428 0.833839 81.489708 -48.824317 -49.392156 0.000000 0.000000 0.000000 -6.126325 20.226158 6.462083 7.030058 32.481614 0.693962 -20.633669 18.945933 -1.600207 0.000000 0.000000 0.000000 
0.008403 0.889592 0.027313 -2.517027 20.445465 -5.689138 6.689756 -0.562187 -7.329935 -7.883675 -1.406488 38.380510 6.303912 9.933522 -5.826437 0.000000 0.000000 0.000000 -7.793861 -0.906267 -27.253885 3.703215 -3.975321 40.180120 -3.079183 -8.229165 6.874338 0.000000 0.000000 0.000000 3.609822 -0.668655 8.240496 -5.630057 2.625647 0.195941 -4.049782 17.026580 5.959500 22.553120 -9.115757 -20.832882 0.000000 0.000000 0.000000 -4.646567 -12.684202 1.810733 -12.008524 -35.230696 0.017589 93.698713 -38.932164 -50.136897 0.000000 0.000000 0.000000 -6.495810 18.239695 5.677311 7.306298 23.407847 0.071096 -17.095845 15.351245 -0.709313 0.000000 0.000000 0.000000 
0.008035 0.880018 0.034304 -2.273240 24.479031 -4.485215 7.304753 -0.781987 -10.104969 -8.509794 -2.191417 41.200228 5.749923 6.930570 -8.615016 0.000000 0.000000 0.000000 -9.876022 -2.184774 -28.880069 5.098005 -6.169190 43.525683 -4.680638 -11.334446 6.293945 0.000000 0.000000 0.000000 3.232715 -0.610529 7.649390 -6.456206 2.968811 -1.032531 -3.360464 18.495897 5.631643 23.504173 -9.795774 -19.990481 0.000000 0.000000 0.000000 -5.656359 -8.609517 -0.316996 -9.048457 -35.650475 -0.760120 99.236589 -30.058303 -45.053273 0.000000 0.000000 0.000000 -5.406511 13.903595 4.479021 9.391650 15.831370 -0.418170 -14.650218 10.990762 -0.079215 0.000000 0.000000 0.000000 
